<?xml version="1.0" encoding="UTF-8"?>
<svg id="Calque_1" data-name="Calque 1" xmlns="http://www.w3.org/2000/svg" viewBox="0 0 286.06 242.6">
  <defs>
    <style>
      .cls-1 {
        fill: #f2f2f2;
        stroke-width: 0px;
      }
    </style>
  </defs>
  <path class="cls-1" d="m224.3,90.1c-14.36-1.34-35.74-3.38-50.19-4.95-19.48-2.12-38.01-8.61-44.99-11.27l-77.47,47.6c9.07,4.46,24.4,10.98,42.8,14.73,26.47,5.39,60.2,2.3,67.8,1.49l62.05-47.6Z"/>
  <polygon class="cls-1" points="170.46 146.52 167.61 220.47 254.05 154.28 236.82 95.62 170.46 146.52"/>
  <path class="cls-1" d="m43.08,130.61l-17.59,54.34,129.93,40.01,2.89-74.83c-13.08,1.14-41.99,2.77-66.27-2.18-22.15-4.51-39.88-12.62-48.97-17.35Z"/>
  <path class="cls-1" d="m12.34,191.13c-.15-.37-.26-.75-.33-1.14.07.39.18.77.33,1.14Z"/>
</svg>