<?xml version="1.0" encoding="UTF-8"?>
<svg id="Calque_1" data-name="Calque 1" xmlns="http://www.w3.org/2000/svg" viewBox="0 0 286.06 242.6">
  <defs>
    <style>
      .cls-1 {
        fill: #f2f2f2;
        stroke-width: 0px;
      }
    </style>
  </defs>
  <path class="cls-1" d="m159.81,228.3l-1.45-141.16c-8.79,1.27-24.73,3.16-41.7,3.16-8.17,0-16.57-.44-24.53-1.6-22.38-3.26-40.53-10.34-49.87-14.55l-27.94,106.55,145.5,47.59Z"/>
  <path class="cls-1" d="m170.5,21.35c-19.57-1.02-38.43-6.45-45.56-8.71l-74.65,51.91c9.31,3.94,24.99,9.58,43.56,12.29,26.73,3.89,60.23-1.11,67.78-2.35l59.26-51.03c-14.41-.53-35.88-1.35-50.39-2.11Z"/>
  <polygon class="cls-1" points="170.31 82.85 171.76 224.15 274.05 141.52 233.7 28.26 170.31 82.85"/>
  <path class="cls-1" d="m166.85,242.52c.13-.02.26-.06.39-.09.19-.04.37-.08.55-.14-.18.06-.37.1-.55.14-.13.03-.26.07-.39.09Z"/>
  <path class="cls-1" d="m168.7,241.9c.12-.07.24-.15.36-.22.13-.08.26-.14.38-.23-.12.09-.25.15-.38.23-.12.08-.24.16-.36.22Z"/>
  <polygon class="cls-1" points="165.89 242.6 165.89 242.6 165.89 242.6 165.89 242.6"/>
  <path class="cls-1" d="m33.41,62.11s-.02.03-.03.04c-.12.18-.24.36-.34.55.11-.19.22-.38.34-.55.01-.01.02-.03.03-.04Z"/>
</svg>